<svg width="360" height="210" viewBox="0 0 360 210" fill="none" xmlns="http://www.w3.org/2000/svg">
<path d="M0 20C0 8.9543 8.9543 0 20 0H340C351.046 0 360 8.95431 360 20V190C360 201.046 351.046 210 340 210H20C8.95431 210 0 201.046 0 190V20Z" fill="#DBE5FF"/>
<circle cx="180.543" cy="96.9156" r="47.8706" fill="url(#paint0_linear_39_82)" stroke="white" stroke-width="3"/>
<path d="M229.914 96.9156H254.968" stroke="white" stroke-width="3"/>
<path d="M179.952 47.8943L179.952 25.1534" stroke="white" stroke-width="3"/>
<circle cx="261.6" cy="96.9156" r="6.60563" stroke="white" stroke-width="3"/>
<circle cx="226.63" cy="34.7285" r="4.48446" stroke="white" stroke-width="3"/>
<path d="M247.871 52.0834C247.871 54.5601 245.863 56.5679 243.387 56.5679C240.91 56.5679 238.902 54.5601 238.902 52.0834C238.902 49.6067 240.91 47.599 243.387 47.599C245.863 47.599 247.871 49.6067 247.871 52.0834Z" stroke="white" stroke-width="3"/>
<path d="M205.597 56.3875V41.3269C205.597 38.0132 208.284 35.327 211.597 35.327H223.638M222.545 73.704H237.387C240.7 73.704 243.387 71.0178 243.387 67.704V56.3875" stroke="white" stroke-width="3"/>
<circle cx="8.10563" cy="8.10563" r="6.60563" transform="matrix(-1 0 0 1 135.594 21.0175)" stroke="white" stroke-width="3"/>
<circle cx="179.952" cy="20.3658" r="4.48446" stroke="white" stroke-width="3"/>
<path d="M132.674 96.9669L98.563 96.9669" stroke="white" stroke-width="3"/>
<path d="M99.4567 96.9669C99.4567 99.4436 97.449 101.451 94.9723 101.451C92.4956 101.451 90.4878 99.4436 90.4878 96.9669C90.4878 94.4902 92.4956 92.4824 94.9723 92.4824C97.449 92.4824 99.4567 94.4902 99.4567 96.9669Z" stroke="white" stroke-width="3"/>
<path d="M179.952 145.518L179.952 168.258" stroke="white" stroke-width="3"/>
<circle cx="5.98446" cy="5.98446" r="4.48446" transform="matrix(1 0 0 -1 220.646 164.668)" stroke="white" stroke-width="3"/>
<path d="M247.871 141.328C247.871 138.852 245.863 136.844 243.387 136.844C240.91 136.844 238.902 138.852 238.902 141.328C238.902 143.805 240.91 145.813 243.387 145.813C245.863 145.813 247.871 143.805 247.871 141.328Z" stroke="white" stroke-width="3"/>
<path d="M205.597 137.024V152.085C205.597 155.399 208.284 158.085 211.597 158.085H223.638M222.545 119.708H237.387C240.7 119.708 243.387 122.394 243.387 125.708V137.024" stroke="white" stroke-width="3"/>
<circle cx="5.98446" cy="5.98446" r="4.48446" transform="matrix(1 0 0 -1 173.967 179.03)" stroke="white" stroke-width="3"/>
<path d="M112.032 59.8632C112.032 62.3399 114.04 64.3477 116.516 64.3477C118.993 64.3477 121.001 62.3399 121.001 59.8632C121.001 57.3865 118.993 55.3788 116.516 55.3788C114.04 55.3788 112.032 57.3865 112.032 59.8632Z" stroke="white" stroke-width="3"/>
<path d="M154.306 56.3875V41.3269C154.306 38.0132 151.62 35.327 148.306 35.327H143.446M137.358 73.704H122.516C119.203 73.704 116.516 71.0178 116.516 67.7041V64.0523" stroke="white" stroke-width="3"/>
<ellipse cx="179.952" cy="190.324" rx="76.601" ry="5.98446" fill="#B0B8FA"/>
<rect x="109.138" y="17.7751" width="33.9067" height="33.9067" rx="9" fill="#87E9FF" stroke="white" stroke-width="2"/>
<path d="M128.792 26.3505V27.4665C128.792 29.5713 128.792 30.6226 129.446 31.2766C130.1 31.9306 131.152 31.9306 133.256 31.9306H134.93M134.93 31.9306L132.14 29.6986M134.93 31.9306L132.14 34.1626" stroke="white" stroke-width="2" stroke-linecap="round" stroke-linejoin="round"/>
<path d="M116.524 30.7398C116.442 32.8692 116.981 36.4862 120.608 40.1143C121.398 40.9116 122.271 41.6224 123.212 42.2347M118.232 27.3962C119.787 25.8416 122.267 26.0503 123.254 27.8203L123.979 29.1171C124.632 30.2889 124.369 31.8246 123.34 32.8546C123.34 32.8546 122.09 34.1035 124.356 36.3679C126.618 38.63 127.868 37.3834 127.868 37.3834C128.898 36.3533 130.435 36.0911 131.606 36.744L132.903 37.4694C134.672 38.4559 134.881 40.9357 133.326 42.4914C132.392 43.4244 131.247 44.1521 129.983 44.1989C128.827 44.2389 127.671 44.095 126.56 43.7726" stroke="white" stroke-width="2" stroke-linecap="round"/>
<rect x="244.387" y="80.0135" width="33.9067" height="33.9067" rx="9" fill="#FF93E1" stroke="white" stroke-width="2"/>
<path d="M258.938 88.1386C259.787 87.718 260.72 87.4997 261.667 87.5005C265.181 87.5005 268.032 90.4692 268.032 94.1317V94.7991C268.031 95.5957 268.257 96.376 268.684 97.0473L269.729 98.6793C270.683 100.17 269.955 102.197 268.296 102.668C263.962 103.902 259.371 103.902 255.037 102.668C253.379 102.197 252.651 100.17 253.604 98.6803L254.649 97.0473C255.076 96.376 255.302 95.5957 255.301 94.7991V94.1317C255.301 93.115 255.521 92.1513 255.914 91.2899M257.423 103.593C258.041 105.248 259.707 106.433 261.667 106.433C261.898 106.433 262.124 106.417 262.346 106.386M265.91 103.593C265.655 104.269 265.232 104.868 264.682 105.335Z" fill="#FF93E1"/>
<path d="M258.938 88.1386C259.787 87.718 260.72 87.4997 261.667 87.5005C265.181 87.5005 268.032 90.4692 268.032 94.1317V94.7991C268.031 95.5957 268.257 96.376 268.684 97.0473L269.729 98.6793C270.683 100.17 269.955 102.197 268.296 102.668C263.962 103.902 259.371 103.902 255.037 102.668C253.379 102.197 252.651 100.17 253.604 98.6803L254.649 97.0473C255.076 96.376 255.302 95.5957 255.301 94.7991V94.1317C255.301 93.115 255.521 92.1513 255.914 91.2899M257.423 103.593C258.041 105.248 259.707 106.433 261.667 106.433C261.898 106.433 262.124 106.417 262.346 106.386M265.91 103.593C265.655 104.269 265.232 104.868 264.682 105.335" stroke="white" stroke-width="2" stroke-linecap="round"/>
<path d="M166.758 72.1909C169.124 70.3959 172.015 69.4287 174.984 69.4384C175.817 69.4384 176.48 69.8723 176.866 70.1708C177.296 70.511 177.699 70.9448 178.06 71.3787C178.316 71.6896 178.456 72.0798 178.455 72.4825V85.0579H174.689C174.28 83.8999 173.474 82.924 172.415 82.3025C171.356 81.6811 170.111 81.4542 168.9 81.6618C167.69 81.8695 166.592 82.4985 165.8 83.4375C165.008 84.3765 164.574 85.5652 164.574 86.7933C164.574 88.0215 165.008 89.2102 165.8 90.1492C166.592 91.0882 167.69 91.7172 168.9 91.9248C170.111 92.1325 171.356 91.9056 172.415 91.2842C173.474 90.6627 174.28 89.6868 174.689 88.5288H178.455V121.208C178.456 121.465 178.399 121.719 178.289 121.951C178.179 122.184 178.019 122.389 177.82 122.551C176.217 123.863 174.072 124.974 171.513 124.974C167.397 124.974 164.332 122.899 162.35 120.417C160.926 118.648 159.951 116.562 159.507 114.336C158.16 113.974 156.91 113.316 155.849 112.409C153.933 110.767 152.423 108.105 152.423 104.148C152.423 102.215 152.551 100.469 152.84 98.9418H163.704C165.911 98.9418 167.73 100.591 168.008 102.722C166.853 103.139 165.884 103.952 165.27 105.015C164.657 106.078 164.438 107.324 164.654 108.532C164.87 109.741 165.505 110.834 166.449 111.619C167.392 112.405 168.583 112.831 169.811 112.824C171.038 112.816 172.224 112.376 173.158 111.579C174.092 110.783 174.714 109.682 174.916 108.471C175.117 107.26 174.884 106.017 174.257 104.961C173.631 103.905 172.652 103.105 171.493 102.701C171.346 100.735 170.462 98.8977 169.018 97.5567C167.573 96.2158 165.675 95.4706 163.704 95.4708H153.954C154.485 94.4365 155.196 93.5618 156.123 92.9405C156.36 92.7892 156.606 92.6524 156.859 92.5309C155.873 89.643 156.13 86.2623 157.081 83.607C157.689 81.8993 158.653 80.2852 159.979 79.2092C160.854 78.4977 161.895 78.0291 163.034 77.9389C163.534 75.5682 164.936 73.6071 166.758 72.1909ZM181.926 112.826H184.53C186.601 112.826 188.587 112.003 190.052 110.538C191.517 109.074 192.339 107.087 192.339 105.016V98.6468C193.497 98.2374 194.473 97.4318 195.095 96.3724C195.716 95.3131 195.943 94.0681 195.735 92.8576C195.528 91.6471 194.899 90.549 193.96 89.7574C193.021 88.9658 191.832 88.5316 190.604 88.5316C189.376 88.5316 188.187 88.9658 187.248 89.7574C186.309 90.549 185.68 91.6471 185.472 92.8576C185.265 94.0681 185.492 95.3131 186.113 96.3724C186.735 97.4318 187.71 98.2374 188.868 98.6468V105.016C188.868 107.411 186.925 109.355 184.53 109.355H181.926V72.4825C181.926 72.0798 182.066 71.6896 182.322 71.3787C182.68 70.9448 183.086 70.511 183.516 70.1708C183.898 69.8723 184.561 69.4384 185.397 69.4384C188.367 69.4287 191.258 70.3959 193.624 72.1909C195.446 73.6071 196.852 75.5682 197.348 77.9389C198.486 78.0256 199.528 78.4977 200.402 79.2092C201.728 80.2852 202.693 81.8993 203.301 83.607C204.252 86.2623 204.509 89.6465 203.523 92.5274C203.773 92.6454 204.018 92.7843 204.259 92.9439C205.213 93.5791 205.939 94.4885 206.473 95.5611C207.525 97.661 207.959 100.591 207.959 104.148C207.959 108.109 206.449 110.767 204.533 112.409C203.472 113.316 202.222 113.974 200.875 114.336C200.527 116.272 199.556 118.515 198.032 120.417C196.053 122.899 192.985 124.974 188.868 124.974C186.314 124.974 184.165 123.863 182.565 122.551C182.366 122.389 182.205 122.184 182.095 121.952C181.984 121.719 181.927 121.465 181.926 121.208V112.826ZM169.778 85.0579C169.318 85.0579 168.876 85.2407 168.551 85.5662C168.225 85.8916 168.042 86.3331 168.042 86.7933C168.042 87.2536 168.225 87.6951 168.551 88.0205C168.876 88.346 169.318 88.5288 169.778 88.5288C170.238 88.5288 170.68 88.346 171.005 88.0205C171.331 87.6951 171.513 87.2536 171.513 86.7933C171.513 86.3331 171.331 85.8916 171.005 85.5662C170.68 85.2407 170.238 85.0579 169.778 85.0579ZM169.778 105.884C169.318 105.884 168.876 106.067 168.551 106.392C168.225 106.718 168.042 107.159 168.042 107.619C168.042 108.08 168.225 108.521 168.551 108.846C168.876 109.172 169.318 109.355 169.778 109.355C170.238 109.355 170.68 109.172 171.005 108.846C171.331 108.521 171.513 108.08 171.513 107.619C171.513 107.159 171.331 106.718 171.005 106.392C170.68 106.067 170.238 105.884 169.778 105.884ZM190.604 95.4708C191.064 95.4708 191.506 95.288 191.831 94.9625C192.157 94.637 192.339 94.1956 192.339 93.7353C192.339 93.275 192.157 92.8336 191.831 92.5081C191.506 92.1827 191.064 91.9998 190.604 91.9998C190.144 91.9998 189.702 92.1827 189.377 92.5081C189.051 92.8336 188.868 93.275 188.868 93.7353C188.868 94.1956 189.051 94.637 189.377 94.9625C189.702 95.288 190.144 95.4708 190.604 95.4708Z" fill="white"/>
<rect x="100.76" y="126.692" width="33.9067" height="33.9067" rx="9" fill="#FF5D5D" stroke="white" stroke-width="2"/>
<path d="M127.755 141.853C126.194 140.244 123.028 138 117.5 138C116.166 138 114.97 138.131 113.9 138.352M129 145.535C129 147.801 126.951 149.456 124.852 148.887L123.311 148.469C121.921 148.091 120.95 146.781 120.95 145.28C120.95 145.28 120.95 143.46 117.5 143.46C114.051 143.46 114.05 145.28 114.05 145.28C114.05 146.781 113.079 148.091 111.689 148.47L110.148 148.888C108.049 149.455 106 147.801 106 145.535C106 144.174 106.319 142.81 107.245 141.853C108.096 140.982 109.086 140.245 110.178 139.67" fill="#FF5D5D"/>
<path d="M127.755 141.853C126.194 140.244 123.028 138 117.5 138C116.166 138 114.97 138.131 113.9 138.352M129 145.535C129 147.801 126.951 149.456 124.852 148.887L123.311 148.469C121.921 148.091 120.95 146.781 120.95 145.28C120.95 145.28 120.95 143.46 117.5 143.46C114.051 143.46 114.05 145.28 114.05 145.28C114.05 146.781 113.079 148.091 111.689 148.47L110.148 148.888C108.049 149.455 106 147.801 106 145.535C106 144.174 106.319 142.81 107.245 141.853C108.096 140.982 109.086 140.245 110.178 139.67" stroke="white" stroke-width="2" stroke-linecap="round"/>
<circle cx="141.651" cy="158.008" r="4.48446" transform="rotate(-180 141.651 158.008)" stroke="white" stroke-width="3"/>
<path d="M156.7 137.024V152.085C156.7 155.399 154.013 158.085 150.7 158.085H146.439M139.752 119.708H124.91C121.596 119.708 118.91 122.394 118.91 125.708V126.889" stroke="white" stroke-width="3"/>
<defs>
<linearGradient id="paint0_linear_39_82" x1="180.543" y1="47.545" x2="180.543" y2="177.972" gradientUnits="userSpaceOnUse">
<stop stop-color="#FE7A8A"/>
<stop offset="1" stop-color="#F3996B" stop-opacity="0.97"/>
</linearGradient>
</defs>
</svg>
