<svg height="56" viewBox="0 0 56 56" width="56" xmlns="http://www.w3.org/2000/svg"><path d="m28 7.2578c-.5156 0-1.0312.2109-1.5937.6797l-15.7969 12.8203c-.3984.3516-.6328.8438-.6328 1.5469 0 1.2187.914 2.1328 2.1562 2.1328.4922 0 1.0078-.1875 1.5469-.6094l14.3203-11.6719 14.3203 11.6719c.5391.4219 1.0547.6094 1.5703.6094 1.2188 0 2.1328-.9141 2.1328-2.1328 0-.7031-.2344-1.1953-.6328-1.5469l-15.7969-12.8438c-.5625-.4453-1.0547-.6562-1.5937-.6562zm0 41.4844c.539 0 1.0312-.211 1.5937-.6563l15.7969-12.8437c.3984-.3516.6328-.8438.6328-1.5469 0-1.2188-.914-2.1562-2.1328-2.1562-.5156 0-1.0312.2109-1.5703.6327l-14.3203 11.6719-14.3203-11.6719c-.5391-.4218-1.0547-.6327-1.5469-.6327-1.2422 0-2.1562.9374-2.1562 2.1562 0 .7031.2344 1.1953.6328 1.5469l15.7969 12.8203c.5625.4687 1.0781.6797 1.5937.6797z"/></svg>